<svg width="24" height="24" viewBox="0 0 24 24" xmlns="http://www.w3.org/2000/svg">
  <!-- Gradient background -->
  <defs>
    <linearGradient id="grad" x1="0%" y1="0%" x2="100%" y2="100%">
      <stop offset="0%" style="stop-color:#8b5cf6; stop-opacity:1" />
      <stop offset="100%" style="stop-color:#ec4899; stop-opacity:1" />
    </linearGradient>
  </defs>
  
  <!-- Rounded background -->
  <rect x="0" y="0" width="24" height="24" rx="6" fill="url(#grad)" />
  
  <!-- Icon -->
  <g transform="scale(0.75) translate(4,4)" stroke="white" stroke-width="2" stroke-linecap="round" stroke-linejoin="round" fill="none">
    <path d="M7 4v16M17 4v16M3 8h4m10 0h4M3 12h18M3 16h4m10 0h4M4 20h16a1 1 0 001-1V5a1 1 0 00-1-1H4a1 1 0 00-1 1v14a1 1 0 001 1z"/>
  </g>
</svg>
